<?xml version="1.0" encoding="UTF-8"?><svg id="Layer_1" xmlns="http://www.w3.org/2000/svg" viewBox="0 0 1603.64 325.49"><defs><style>.cls-1{fill:#fdfcf7;}.cls-2{fill:#001f3f;}</style></defs><path class="cls-2" d="M143.23,297.24c-14.74-.13-43.32-14.16-69.43-40.71-30.3-30.81-46.98-68.74-46.98-106.78,0-18.84.35-99.61.36-100.42,0-2.19,1.44-4.12,3.54-4.76,2.09-.64,51.88-15.65,112.56-15.68,60.68.03,110.47,15.04,112.56,15.68,2.09.64,3.53,2.57,3.54,4.76,0,.81.36,81.58.36,100.42,0,38.05-16.68,75.97-46.98,106.78-26.11,26.56-54.69,40.58-69.43,40.71h-.09Z"/><path class="cls-1" d="M143.25,294.24c-13.78-.12-42.05-14.12-67.32-39.82-29.74-30.25-46.12-67.42-46.12-104.68,0-18.84.35-99.6.36-100.41,0-.88.58-1.65,1.42-1.9.51-.16,51.46-15.52,111.68-15.55,60.23.03,111.17,15.39,111.68,15.55.84.26,1.41,1.03,1.42,1.9,0,.81.36,81.57.36,100.41,0,37.25-16.38,74.43-46.12,104.68-25.27,25.7-53.54,39.7-67.32,39.82h-.04Z"/><path class="cls-2" d="M254.37,49.34s-50.47-15.43-111.1-15.46c-60.62.03-111.1,15.46-111.1,15.46,0,0-.36,81.35-.36,100.4,0,85.65,84.3,142.26,111.45,142.5,27.15-.24,111.45-56.85,111.45-142.5,0-19.05-.36-100.4-.36-100.4Z"/><path class="cls-1" d="M132.46,52.66c19.22,23.69-9.54,59.61-44.86,120.11-35.32,60.5,43.68,91,49.97,91.59,6.3.59-30.69-23.12-18.99-59.12,11.71-36,39.86-56.39,46.92-83.87s-52.27-92.39-33.05-68.7Z"/><path class="cls-1" d="M177.27,121.31c1.92,3.9,2.81,11.02.68,19.43-2.13,8.41-5.11,14.66-11.67,24.91-6.56,10.25-13.03,16.93-25.75,38.79-12.73,21.85,12.62,43.41,7.88,36s1.89-21.85,8.52-31.53c6.64-9.68,11.13-14.19,17.6-23.54,6.48-9.35,12.63-24.05,12.68-32.18.05-8.13-.05-10.72-3.26-19.47-3.21-8.74-10.52-20.19-6.69-12.4h0Z"/><path class="cls-1" d="M164.7,259.08c-3.05,5.41-3.92-11.39,1.51-25.92,5.43-14.54,22.58-27.33,29.96-41.08,7.37-13.75,12.03-34.55,6.12-45.61-5.91-11.06,1.04,1.27,6.03,9.19,4.98,7.92,7.79,13.73,7.66,26.68-.12,12.95-3.51,28.12-25.84,47.97-22.33,19.85-22.38,23.37-25.44,28.77h0Z"/><path class="cls-2" d="M332.81,88.65c5.2,0,17.1.65,26.41.65,12.99,0,24.47-.65,27.71-.65,1.08.43,1.3,5.41.22,6.06-4.76.87-8.44,1.73-11.26,2.38-3.68.87-4.11,3.68-3.03,6.71,6.5,18.62,31.18,84.65,35.29,94.4.22,0,.65,0,1.08-.22,5.2-11.91,28.15-69.72,34.21-88.55,2.6-8.01,1.52-11.26-4.98-12.56-3.25-.65-6.71-1.3-11.69-2.17-.65-.87-.22-5.63.65-6.06,3.46,0,12.12.65,25.55.65,11.48,0,17.54-.65,22.73-.65.87.65.87,5.2,0,6.06-3.68.65-6.71,1.3-9.53,2.17-6.71,2.17-8.66,6.5-13.86,18.62-6.71,15.37-21.22,51.53-32.04,78.38-5.2,12.99-9.09,23.82-11.26,30.53-3.25-.65-9.74-.65-12.99,0-2.17-8.44-5.2-18.19-9.31-29.44-10.83-29.23-24.25-64.95-30.53-80.97-4.98-11.91-7.36-15.37-13.86-17.32-2.81-.65-6.06-1.3-10.18-1.95-.87-.87-.43-5.63.65-6.06Z"/><path class="cls-2" d="M461.62,126.76c4.11,0,14.94.65,23.82.65h34.21c7.58,0,15.16-.22,18.84-.87.22,0,.87.87.87,1.08-1.3,4.55-2.17,15.59-2.6,23.17-.87,1.08-5.85,1.08-6.28.43-.65-3.68-1.3-6.71-2.17-9.09-1.08-4.11-3.25-6.06-8.44-6.5-2.81-.43-21.65-.43-23.6,0-1.3.22-2.17,2.17-2.17,3.03,0,10.18-.22,22.95,0,30.09,0,.43.43,1.08.87,1.08,8.01,0,17.1,0,22.52-.22,4.11-.22,5.2-2.81,6.06-5.2.65-1.95,1.08-4.11,1.52-6.5,1.08-.43,6.06,0,6.71.65-.43,3.03-1.08,11.04-1.08,15.8,0,4.33.22,11.47.43,15.8-.87.65-5.85.87-6.71.22-.65-3.46-1.08-4.76-1.52-6.71-.87-2.38-2.17-4.55-5.41-4.76-4.98-.43-15.59-.43-22.52-.43-.43,0-.87.87-.87,1.3,0,7.14,0,19.27.22,26.85.22,3.68,2.17,6.06,3.9,6.71,3.46.87,18.19,1.08,24.9.87,6.5-.22,8.66-1.95,11.69-6.06,2.82-3.68,5.41-8.88,7.36-13.64.87-.22,5.85,1.08,6.06,2.38-.65,4.76-3.9,16.89-6.5,22.73-1.3,2.6-2.38,3.25-9.31,3.25-12.99.22-20.57-.43-47.42-.43-13.21,0-22.3.65-27.93.65-.43-.65-.65-5.63,0-6.28,4.98-.43,11.26-1.08,14.29-1.73,3.9-1.08,4.76-2.81,5.2-8.44.22-3.68.22-18.4.22-35.72,0-14.07,0-25.76-.22-28.58-.43-4.98-1.08-6.5-4.76-7.58-2.38-.65-6.93-1.3-10.61-1.73-.65-.65-.43-5.85.43-6.28Z"/><path class="cls-2" d="M560.57,126.76c3.68,0,15.37.65,20.79.65,11.69,0,24.03-.22,30.53-.22,19.49,0,29.01,11.04,29.01,24.25s-9.31,20.78-18.62,24.46c-.43.43-.22,1.08-.22,1.3,5.41,8.66,17.97,24.68,25.98,32.48,5.63,5.84,9.09,6.5,17.54,7.79.65.43.22,5.85-.87,6.06-6.93.22-21.65,0-27.28-2.82-2.38-1.08-4.98-2.81-7.79-6.06-6.06-6.93-16.46-22.3-22.3-30.74-1.08-1.73-3.03-2.6-4.76-2.6-2.17-.22-6.5,0-8.88,0-.43,0-.65.65-.65.87,0,8.44,0,20.57.43,25.76.43,5.2,1.52,6.28,5.2,7.36,2.17.65,6.28,1.3,10.39,1.73.87.65.43,5.41-.22,6.06-3.9,0-14.51-.65-24.9-.65-9.09,0-20.35.65-23.82.65-.65-.87-.87-5.63,0-6.06,3.25-.43,8.23-1.08,9.96-1.52,3.68-1.08,5.41-2.81,5.63-8.66.22-3.46.43-22.08.43-30.53,0-16.45,0-30.53-.22-34.86-.22-4.33-1.52-6.06-5.2-6.93-2.81-.65-6.93-1.3-10.39-1.52-.87-.87-.43-5.85.22-6.28ZM593.26,137.15c-.22,5.41-.22,23.82-.22,35.07,0,.65.43,1.3,1.08,1.3,4.76.22,14.94.43,19.05-.87,5.41-1.52,10.61-6.5,10.61-16.89,0-14.72-8.44-21.43-23.38-21.43-1.3,0-4.11,0-5.85.87-.43,0-1.3,1.52-1.3,1.95Z"/><path class="cls-2" d="M674.01,126.76c3.25,0,14.72.65,23.17.65,8.01,0,19.92-.65,24.25-.65.87.65.87,5.2,0,6.5-3.46.22-7.58.87-9.31,1.3-3.68.87-4.76,2.81-4.98,7.58-.43,6.5-.43,17.54-.43,31.18,0,15.16.22,28.15.43,33.34.22,4.98,1.3,7.14,5.85,8.44,2.17.65,6.5,1.3,10.61,1.73.65.65.43,5.63-.22,6.28-3.9,0-17.32-.65-25.33-.65-8.66,0-19.7.65-24.68.65-.65-.87-.87-5.63,0-6.28,3.68-.43,8.01-1.08,10.18-1.52,4.55-1.08,5.2-3.25,5.63-6.93.43-4.55.43-18.19.43-38.32,0-12.56,0-21-.43-28.36-.22-4.11-1.08-5.85-4.33-6.93-2.6-.65-6.28-1.08-10.83-1.51-.87-.87-.43-5.85,0-6.5Z"/><path class="cls-2" d="M738.09,126.76c4.33,0,13.64.65,24.25.65,8.66,0,20.14-.65,23.38-.65.87.65.65,5.41,0,6.28-4.33.43-7.58,1.08-9.74,1.3-3.68,1.08-4.55,3.46-4.76,6.71,0,5.2-.22,15.16-.22,31.18,0,13.86.22,30.31.43,36.59.22,2.6,2.38,4.55,3.25,4.76,4.33.65,14.07,1.08,23.38,1.08,3.68,0,6.93-1.3,10.18-5.2,3.25-4.33,8.23-12.99,11.04-19.27,1.08-.43,5.41,1.3,5.85,2.17-1.3,6.93-6.06,22.95-9.09,28.15-1.08,1.95-3.03,2.81-6.5,2.81-9.96,0-39.84-.87-48.06-.87-7.36,0-22.3.65-25.76.65-.87-.87-.65-5.41,0-6.06,5.2-.65,9.74-.87,12.56-1.73,3.68-.87,4.76-2.81,4.98-6.28.43-4.33.65-17.54.65-37.67,0-16.24,0-23.6-.22-27.71-.22-6.5-1.73-8.23-5.85-9.09-1.95-.65-6.28-1.3-9.74-1.52-.87-.87-.43-5.63,0-6.28Z"/><path class="cls-2" d="M823.83,126.76c2.81,0,10.39.65,23.17.65,9.31,0,18.84-.65,22.95-.65.65,1.08.65,5.41,0,6.28-3.25.22-6.71.87-8.66,1.3-3.68,1.3-4.76,2.6-4.98,7.79-.22,15.37-.22,33.34,0,41.35.43,6.93,1.3,12.12,3.03,15.37,2.81,8.66,11.04,15.81,25.11,15.81,12.12,0,24.03-3.9,25.55-27.28.87-11.69.87-26.85.22-42.87-.22-7.58-2.17-9.09-7.58-10.18-2.38-.65-5.41-.87-8.88-1.3-1.08-.87-1.08-5.63,0-6.28,2.6,0,11.91.65,22.08.65s16.45-.65,19.05-.65c.87.65,1.08,4.98,0,6.28-2.17.22-5.63.87-8.01,1.52-4.33,1.08-6.06,3.46-6.06,11.04-.87,32.48-.43,42.65-3.68,53.69-4.76,18.84-20.35,25.98-38.54,25.98-25.11,0-37.24-11.26-39.4-29.01-1.08-9.96-.65-46.55-1.08-54.13-.22-4.11-1.08-6.5-4.55-7.36-1.73-.65-7.14-1.51-9.96-1.73-.65-1.08-.87-5.63.22-6.28Z"/><path class="cls-2" d="M951.13,214.88c4.55-1.52,7.58-3.68,11.91-9.09,7.36-9.09,15.8-19.92,22.08-29.01.22-.65.22-1.52,0-1.95-5.85-9.53-13.86-21.87-19.49-30.53-3.68-5.41-5.41-7.79-11.26-9.53-2.81-.87-6.5-1.3-10.18-1.73-.87-.43-.65-5.85.22-6.28,4.55,0,13.21.65,22.52.65,9.96,0,20.57-.65,22.52-.65.87.65,1.08,5.2.43,6.28-3.03.43-6.06,1.08-7.36,1.52-1.3.65-1.73,1.73-1.08,2.81,1.95,4.55,10.83,17.97,16.02,25.98.22.43.65.43.87,0,6.06-8.44,12.99-18.4,16.02-24.46.87-1.95,1.08-3.46-1.52-4.33-3.25-.87-5.85-1.08-8.44-1.52-.87-1.08-.22-5.85.65-6.28,3.68,0,12.77.65,19.27.65,8.23,0,16.02-.65,18.84-.65.65.43.65,5.85-.22,6.28-2.81.43-6.28.87-8.44,1.52-4.55,1.08-7.79,3.03-15.16,12.34-5.41,7.36-11.04,14.94-16.67,22.73-.22.43-.22.87,0,1.3,5.63,9.09,14.29,22.08,20.14,30.74,7.14,11.04,9.74,12.12,14.94,13.42,2.81.87,6.28,1.3,9.74,1.73.87.87.43,5.41-.43,6.28-6.5,0-11.91-.65-25.55-.65-9.74,0-17.75.65-22.52.65-.87-.87-.87-5.85-.22-6.28,2.6-.43,5.41-.87,7.79-1.73,1.95-.43,2.6-1.73,1.73-3.68-2.82-5.2-11.26-18.4-17.54-28.15-.43-.43-.87-.43-1.08,0-8.23,11.26-15.59,22.3-18.4,27.06-.87,1.52-.87,4.11,1.95,4.98,2.17.43,5.2,1.08,8.88,1.52.65.65,0,5.85-.65,6.28-4.11,0-14.51-.87-21-.65-7.36.22-17.32.65-20.78.65-.65-.65-.87-5.63,0-6.28,3.68-.43,8.44-1.08,11.47-1.95Z"/><path class="cls-2" d="M1143.16,163.13c0-.87.43-1.73.87-1.95,1.95.43,5.2.65,8.44.65,6.5,0,10.83-1.08,15.16-3.25,9.96-5.63,13.21-15.59,13.21-27.93,0-19.92-9.96-34.42-34.64-34.42-2.17,0-7.58.22-9.09,1.08-.65.43-1.51,1.52-1.73,3.03-.22,4.98-.43,16.24-.43,51.31,0,24.68-.22,41.14.22,52.18.65,7.79,1.95,9.53,8.01,11.04,3.25.87,7.79,1.3,12.99,1.95.87.87.43,5.63-.22,6.28-6.28,0-21.43-.65-29.88-.65-9.96,0-23.38.65-28.36.65-.87-.87-.87-5.41-.22-6.06,4.55-.65,8.88-1.08,11.47-1.73,5.2-1.52,6.28-3.9,6.71-12.56.43-7.36.65-25.11.65-48.5,0-24.9.22-39.62-.22-46.33-.43-7.58-1.73-10.18-7.79-11.47-2.81-.65-6.28-1.3-10.61-1.73-.87-1.08-.22-5.41.43-6.06,3.46,0,15.37.65,25.55.65,12.99,0,22.3-.43,35.07-.43,7.36,0,20.35,1.52,28.79,8.23,7.14,5.63,13.42,14.94,13.42,29.23,0,19.92-11.69,32.26-22.95,37.67-7.58,3.9-15.37,5.41-22.73,5.41-3.68,0-6.71-.22-9.31-1.08-1.3-.87-2.6-4.11-2.81-5.2Z"/><path class="cls-2" d="M1210.06,126.76c3.68,0,15.37.65,20.79.65,11.69,0,24.03-.22,30.53-.22,19.49,0,29.01,11.04,29.01,24.25s-9.31,20.78-18.62,24.46c-.43.43-.22,1.08-.22,1.3,5.41,8.66,17.97,24.68,25.98,32.48,5.63,5.84,9.09,6.5,17.54,7.79.65.43.22,5.85-.87,6.06-6.93.22-21.65,0-27.28-2.82-2.38-1.08-4.98-2.81-7.79-6.06-6.06-6.93-16.46-22.3-22.3-30.74-1.08-1.73-3.03-2.6-4.76-2.6-2.17-.22-6.5,0-8.88,0-.43,0-.65.65-.65.87,0,8.44,0,20.57.43,25.76.43,5.2,1.52,6.28,5.2,7.36,2.17.65,6.28,1.3,10.39,1.73.87.65.43,5.41-.22,6.06-3.9,0-14.51-.65-24.9-.65-9.09,0-20.35.65-23.82.65-.65-.87-.87-5.63,0-6.06,3.25-.43,8.23-1.08,9.96-1.52,3.68-1.08,5.41-2.81,5.63-8.66.22-3.46.43-22.08.43-30.53,0-16.45,0-30.53-.22-34.86-.22-4.33-1.52-6.06-5.2-6.93-2.81-.65-6.93-1.3-10.39-1.52-.87-.87-.43-5.85.22-6.28ZM1242.75,137.15c-.22,5.41-.22,23.82-.22,35.07,0,.65.43,1.3,1.08,1.3,4.76.22,14.94.43,19.05-.87,5.41-1.52,10.61-6.5,10.61-16.89,0-14.72-8.44-21.43-23.38-21.43-1.3,0-4.11,0-5.85.87-.43,0-1.3,1.52-1.3,1.95Z"/><path class="cls-2" d="M1320.69,126.76c4.11,0,14.94.65,23.82.65h34.21c7.58,0,15.16-.22,18.84-.87.22,0,.87.87.87,1.08-1.3,4.55-2.17,15.59-2.6,23.17-.87,1.08-5.85,1.08-6.28.43-.65-3.68-1.3-6.71-2.17-9.09-1.08-4.11-3.25-6.06-8.44-6.5-2.81-.43-21.65-.43-23.6,0-1.3.22-2.17,2.17-2.17,3.03,0,10.18-.22,22.95,0,30.09,0,.43.43,1.08.87,1.08,8.01,0,17.1,0,22.52-.22,4.11-.22,5.2-2.81,6.06-5.2.65-1.95,1.08-4.11,1.52-6.5,1.08-.43,6.06,0,6.71.65-.43,3.03-1.08,11.04-1.08,15.8,0,4.33.22,11.47.43,15.8-.87.65-5.85.87-6.71.22-.65-3.46-1.08-4.76-1.52-6.71-.87-2.38-2.17-4.55-5.41-4.76-4.98-.43-15.59-.43-22.52-.43-.43,0-.87.87-.87,1.3,0,7.14,0,19.27.22,26.85.22,3.68,2.17,6.06,3.9,6.71,3.46.87,18.19,1.08,24.9.87,6.5-.22,8.66-1.95,11.69-6.06,2.82-3.68,5.41-8.88,7.36-13.64.87-.22,5.85,1.08,6.06,2.38-.65,4.76-3.9,16.89-6.5,22.73-1.3,2.6-2.38,3.25-9.31,3.25-12.99.22-20.57-.43-47.42-.43-13.21,0-22.3.65-27.93.65-.43-.65-.65-5.63,0-6.28,4.98-.43,11.26-1.08,14.29-1.73,3.9-1.08,4.76-2.81,5.2-8.44.22-3.68.22-18.4.22-35.72,0-14.07,0-25.76-.22-28.58-.43-4.98-1.08-6.5-4.76-7.58-2.38-.65-6.93-1.3-10.61-1.73-.65-.65-.43-5.85.43-6.28Z"/><path class="cls-2" d="M1439.76,213.58c3.9,3.03,9.96,4.55,15.8,4.55,8.44,0,17.32-3.9,17.32-14.72,0-8.88-5.2-13.86-22.08-21.87-17.54-8.01-25.11-16.02-25.11-30.09,0-16.89,15.8-26.85,33.99-26.85,7.58,0,12.34.65,15.81,1.08,4.55.65,8.88,1.3,11.04,1.3-.87,4.98-2.17,16.89-2.6,24.68-1.08.87-5.63.87-6.28,0-1.08-9.74-3.03-14.29-6.71-16.89-3.46-2.6-8.66-3.9-13.64-3.9-11.04,0-16.24,7.14-16.24,14.72,0,8.01,4.33,12.99,11.04,16.45,8.01,4.11,14.72,6.93,21.43,10.39,8.66,4.55,16.24,11.26,16.24,23.6,0,16.02-14.29,29.45-38.11,29.45-9.96,0-22.08-3.25-25.76-4.98-1.3-1.95-4.11-20.14-4.55-25.98.22-.65,4.98-1.73,6.28-1.3,2.81,9.74,6.71,16.67,12.12,20.35Z"/><path class="cls-2" d="M1526.14,213.58c3.9,3.03,9.96,4.55,15.8,4.55,8.44,0,17.32-3.9,17.32-14.72,0-8.88-5.2-13.86-22.08-21.87-17.54-8.01-25.11-16.02-25.11-30.09,0-16.89,15.8-26.85,33.99-26.85,7.58,0,12.34.65,15.81,1.08,4.55.65,8.88,1.3,11.04,1.3-.87,4.98-2.17,16.89-2.6,24.68-1.08.87-5.63.87-6.28,0-1.08-9.74-3.03-14.29-6.71-16.89-3.46-2.6-8.66-3.9-13.64-3.9-11.04,0-16.24,7.14-16.24,14.72,0,8.01,4.33,12.99,11.04,16.45,8.01,4.11,14.72,6.93,21.43,10.39,8.66,4.55,16.24,11.26,16.24,23.6,0,16.02-14.29,29.45-38.11,29.45-9.96,0-22.08-3.25-25.76-4.98-1.3-1.95-4.11-20.14-4.55-25.98.22-.65,4.98-1.73,6.28-1.3,2.81,9.74,6.71,16.67,12.12,20.35Z"/></svg>