<?xml version="1.0" encoding="UTF-8"?><svg id="Layer_1" xmlns="http://www.w3.org/2000/svg" viewBox="0 0 410 410"><defs><style>.cls-1{fill:#fdfcf7;}.cls-2{fill:#001f3f;}.cls-3{fill:#001f3f;}</style></defs><rect class="cls-1" width="410" height="410"/><path class="cls-1" d="M205,353.87c-16.63-.15-48.55-15.71-77.51-45.16-33.52-34.1-51.99-76.1-51.99-118.27,0-17.15.27-81.3.38-108.08v-1.71c.02-3.37,2.2-6.3,5.42-7.29,2.3-.7,57.08-17.2,123.69-17.23,66.62.03,121.39,16.53,123.69,17.23,3.23.99,5.4,3.91,5.42,7.28v1.71c.12,26.78.39,90.93.39,108.08,0,42.17-18.46,84.17-51.99,118.27-28.96,29.45-60.88,45.02-77.44,45.16h-.07Z"/><path class="cls-2" d="M204.95,351.69c-16.11-.14-47.36-15.48-75.9-44.51-33.12-33.69-51.36-75.14-51.36-116.74,0-20.6.39-108.89.39-109.78.01-2.39,1.58-4.5,3.87-5.2,2.29-.7,56.72-17.11,123.05-17.14,66.33.03,120.77,16.44,123.05,17.14,2.29.7,3.86,2.81,3.87,5.2,0,.89.39,89.19.39,109.78,0,41.59-18.24,83.05-51.36,116.74-28.54,29.03-59.79,44.37-75.9,44.51h-.1Z"/><path class="cls-1" d="M204.98,348.41c-15.06-.13-45.97-15.44-73.59-43.53-32.51-33.07-50.42-73.71-50.42-114.44,0-20.59.39-108.88.39-109.77,0-.96.63-1.8,1.55-2.08.55-.17,56.25-16.96,122.09-17,65.84.03,121.54,16.83,122.09,17,.92.28,1.54,1.12,1.55,2.08,0,.89.39,89.18.39,109.77,0,40.73-17.91,81.37-50.42,114.44-27.62,28.09-58.53,43.4-73.59,43.53h-.04Z"/><path class="cls-3" d="M326.45,80.68s-55.18-16.87-121.45-16.9c-66.27.03-121.45,16.9-121.45,16.9,0,0-.39,88.94-.39,109.76,0,93.64,92.16,155.52,121.84,155.78,29.68-.26,121.84-62.15,121.84-155.78,0-20.82-.39-109.76-.39-109.76Z"/><path class="cls-1" d="M193.19,84.31c21.01,25.9-10.43,65.17-49.04,131.31-38.61,66.14,47.75,99.48,54.63,100.12s-33.55-25.27-20.76-64.63c12.8-39.36,43.58-61.64,51.3-91.69,7.72-30.05-57.15-101-36.13-75.11Z"/><path class="cls-1" d="M242.16,159.36c2.09,4.26,3.07,12.05.75,21.24-2.33,9.19-5.59,16.03-12.76,27.23-7.18,11.2-14.24,18.51-28.15,42.4-13.91,23.89,13.8,47.46,8.62,39.35s2.06-23.89,9.32-34.47c7.26-10.59,12.17-15.51,19.24-25.73,7.08-10.23,13.81-26.29,13.86-35.18.05-8.89-.05-11.72-3.56-21.28s-11.5-22.07-7.31-13.55h0Z"/><path class="cls-1" d="M228.43,309.97c-3.34,5.91-4.29-12.45,1.65-28.34,5.94-15.89,24.69-29.87,32.75-44.91,8.06-15.04,13.15-37.77,6.69-49.87s1.14,1.39,6.59,10.05c5.45,8.65,8.51,15.01,8.38,29.17-.14,14.15-3.83,30.75-28.25,52.44-24.42,21.7-24.47,25.54-27.81,31.46h0Z"/></svg>